# xmcd
#
# Track frame offsets: 
#        150
#        15641
#        32301
#        50767
#        69252
#        87488
#        105167
#        122634
#        137834
#        155148
#        173828
#        193730
#
# Disc length: 2814 seconds
#
# Revision: 0
# Processed by: cddbd v1.5.1PL2 Copyright (c) Steve Scherf et al.
# Submitted via: ExactAudioCopy v0.95b4
#
DISCID=9a0afc0c
DTITLE=ร็อคออนชอน - โจ๊ะ โจ๊ะ 1
DYEAR=2004
DGENRE=Country
TTITLE0=แขกขายมุ้ง
TTITLE1=เซ็นเบิ๊ดปี
TTITLE2=ม่วนหน้าฮ้าน
TTITLE3=แต่งตัวนอน
TTITLE4=มหาสงกรานต์
TTITLE5=ผุ้อ้ายแต่หายาก
TTITLE6=สุดแซบอีสาน
TTITLE7=แนวบ่มัก
TTITLE8=สะเดาะเคราะห์
TTITLE9=ศิลปินยกจก
TTITLE10=สาวแหล่ใจดำ
TTITLE11=ครูแก่
EXTD=
EXTT0=
EXTT1=
EXTT2=
EXTT3=
EXTT4=
EXTT5=
EXTT6=
EXTT7=
EXTT8=
EXTT9=
EXTT10=
EXTT11=
PLAYORDER=
